<?xml version="1.0" encoding="UTF-8"?>
<svg width="512px" height="512px" viewBox="0 0 512 512" version="1.1" xmlns="http://www.w3.org/2000/svg" xmlns:xlink="http://www.w3.org/1999/xlink">
    <!-- Generator: Sketch 57.1 (83088) - https://sketch.com -->
    <title>Icon@1x</title>
    <desc>Created with Sketch.</desc>
    <defs>
        <linearGradient x1="50%" y1="0%" x2="50%" y2="100%" id="linearGradient-1">
            <stop stop-color="#FF8126" offset="0%"></stop>
            <stop stop-color="#FF117E" offset="100%"></stop>
        </linearGradient>
        <path d="M82.015625,29.6367188 C103.158203,29.6367188 116.732422,43.8457031 116.732422,66.7460938 C116.732422,89.6953125 103.207031,103.904297 82.015625,103.904297 C60.7265625,103.904297 47.25,89.6953125 47.25,66.7460938 C47.25,43.8457031 60.8242188,29.6367188 82.015625,29.6367188 Z M82.015625,44.4804688 C72.1035156,44.4804688 65.5117188,53.171875 65.5117188,66.7460938 C65.5117188,80.3691406 72.0058594,89.0605469 82.015625,89.0605469 C91.8789062,89.0605469 98.4707031,80.3691406 98.4707031,66.7460938 C98.4707031,53.171875 91.8789062,44.4804688 82.015625,44.4804688 Z M132.748047,35.203125 L149.984375,35.203125 L149.984375,48.3867188 L160.921875,48.3867188 L160.921875,61.2285156 L149.984375,61.2285156 L149.984375,83.25 C149.984375,87.3515625 152.083984,89.3535156 156.576172,89.3535156 C158.578125,89.3535156 159.652344,89.2558594 160.921875,89.109375 L160.921875,101.414062 C159.115234,101.804688 155.941406,102.097656 152.669922,102.097656 C138.363281,102.097656 132.748047,97.7519531 132.748047,87.1074219 L132.748047,61.2285156 L124.398438,61.2285156 L124.398438,48.3867188 L132.748047,48.3867188 L132.748047,35.203125 Z M172.787109,102 L172.787109,27.2929688 L189.681641,27.2929688 L189.681641,56.6875 L190.609375,56.6875 C193.001953,50.4375 199.056641,46.6289062 206.869141,46.6289062 C218.685547,46.6289062 225.472656,53.9042969 225.472656,67.0878906 L225.472656,102 L208.236328,102 L208.236328,70.9941406 C208.236328,64.2558594 205.160156,60.6914062 199.447266,60.6914062 C193.539062,60.6914062 190.023438,64.9394531 190.023438,71.1894531 L190.023438,102 L172.787109,102 Z M262.923828,58.640625 C257.259766,58.640625 253.304688,62.5957031 252.865234,68.7480469 L272.591797,68.7480469 C272.298828,62.4003906 268.685547,58.640625 262.923828,58.640625 Z M273.226562,85.984375 L288.998047,85.984375 C287.09375,96.5800781 277.132812,103.269531 263.070312,103.269531 C245.736328,103.269531 235.775391,93.015625 235.775391,75.1933594 C235.775391,57.2734375 245.980469,46.3847656 262.826172,46.3847656 C279.574219,46.3847656 289.339844,56.5410156 289.339844,73.875 L289.339844,78.6601562 L252.767578,78.6601562 L252.767578,79.5390625 C252.914062,86.6191406 256.966797,91.0136719 263.558594,91.0136719 C268.587891,91.0136719 272.054688,89.1582031 273.226562,85.984375 Z M300.082031,102 L300.082031,47.6542969 L316.878906,47.6542969 L316.878906,56.5898438 L317.806641,56.5898438 C319.125,51.1210938 324.398438,46.8242188 331.185547,46.8242188 C333.480469,46.8242188 336.166016,47.1171875 337.435547,47.6542969 L337.435547,62.3515625 C336.117188,61.8144531 332.650391,61.375 330.013672,61.375 C322.396484,61.375 317.318359,65.671875 317.318359,73.2402344 L317.318359,102 L300.082031,102 Z" id="path-2"></path>
        <path d="M77.3900391,58.8359375 L65.8177734,102 L48.9232422,102 L30.5150391,31.5410156 L49.1185547,31.5410156 L58.4935547,78.2695312 L59.3724609,78.2695312 L70.6517578,31.5410156 L85.0072266,31.5410156 L96.6771484,78.2695312 L97.5560547,78.2695312 L106.78457,31.5410156 L125.241602,31.5410156 L106.833398,102 L90.0365234,102 L78.2689453,58.8359375 L77.3900391,58.8359375 Z M153.582617,103.269531 C136.199805,103.269531 125.89707,92.6738281 125.89707,74.8027344 C125.89707,57.2246094 136.492773,46.3847656 153.582617,46.3847656 C170.770117,46.3847656 181.268164,57.1269531 181.268164,74.8027344 C181.268164,92.7226562 171.014258,103.269531 153.582617,103.269531 Z M153.582617,90.0859375 C159.930273,90.0859375 163.543555,84.4707031 163.543555,74.8027344 C163.543555,65.3300781 159.832617,59.5683594 153.582617,59.5683594 C147.332617,59.5683594 143.62168,65.3300781 143.62168,74.8027344 C143.62168,84.5195312 147.234961,90.0859375 153.582617,90.0859375 Z M190.05918,102 L190.05918,47.6542969 L206.856055,47.6542969 L206.856055,56.5898438 L207.783789,56.5898438 C209.102148,51.1210938 214.375586,46.8242188 221.162695,46.8242188 C223.457617,46.8242188 226.143164,47.1171875 227.412695,47.6542969 L227.412695,62.3515625 C226.094336,61.8144531 222.627539,61.375 219.99082,61.375 C212.373633,61.375 207.295508,65.671875 207.295508,73.2402344 L207.295508,102 L190.05918,102 Z M255.586523,102.830078 C241.963477,102.830078 233.760352,92.1855469 233.760352,74.7050781 C233.760352,57.3710938 242.012305,46.8242188 255.586523,46.8242188 C262.861914,46.8242188 268.721289,50.3886719 271.406836,56.3945312 L272.33457,56.3945312 L272.33457,27.2929688 L289.619727,27.2929688 L289.619727,102 L272.774023,102 L272.774023,93.5039062 L271.846289,93.5039062 C269.160742,99.3632812 263.154883,102.830078 255.586523,102.830078 Z M261.93418,60.3984375 C255.391211,60.3984375 251.484961,65.8671875 251.484961,74.8027344 C251.484961,83.8359375 255.342383,89.2558594 261.93418,89.2558594 C268.525977,89.2558594 272.432227,83.8359375 272.432227,74.8515625 C272.432227,65.9160156 268.477148,60.3984375 261.93418,60.3984375 Z M302.315039,64.0117188 C302.315039,53.2207031 311.543555,46.3847656 326.191992,46.3847656 C341.231055,46.3847656 349.483008,52.1953125 350.117773,63.1328125 L334.395117,63.1328125 C333.906836,59.9589844 331.025977,58.0546875 326.338477,58.0546875 C321.846289,58.0546875 318.721289,60.0078125 318.721289,62.9375 C318.721289,65.2324219 320.674414,66.5996094 324.971289,67.5273438 L336.201758,69.8222656 C346.895117,72.0683594 351.533789,76.5117188 351.533789,84.7636719 C351.533789,96.0429688 341.62168,103.269531 326.436133,103.269531 C310.859961,103.269531 301.973242,97.3613281 300.99668,86.4238281 L317.64707,86.4238281 C318.525977,89.7929688 321.602148,91.5996094 326.680273,91.5996094 C331.416602,91.5996094 334.492773,89.6953125 334.492773,86.765625 C334.492773,84.4707031 332.881445,83.25 328.535742,82.3222656 L318.42832,80.1738281 C307.637305,77.8789062 302.315039,72.5566406 302.315039,64.0117188 Z" id="path-3"></path>
    </defs>
    <g id="Icon" stroke="none" stroke-width="1" fill="none" fill-rule="evenodd">
        <rect id="Background" fill="url(#linearGradient-1)" x="0" y="0" width="512" height="512"></rect>
        <g id="Group-3" fill="#008CE4">
            <rect id="Rectangle" x="0" y="0" width="512" height="512"></rect>
        </g>
        <g id="Other" transform="translate(65.000000, 56.000000)">
            <rect id="Rectangle" stroke="#979797" fill="#FFFFFF" x="0" y="0" width="382" height="133"></rect>
            <g fill-rule="nonzero">
                <use fill="#FFFFFF" xlink:href="#path-2"></use>
                <use fill="#000000" xlink:href="#path-2"></use>
            </g>
        </g>
        <g id="Words" transform="translate(65.000000, 221.000000)">
            <rect id="Rectangle" stroke="#979797" fill="#FFFFFF" x="0" y="0" width="382" height="133"></rect>
            <g fill-rule="nonzero">
                <use fill="#FFFFFF" xlink:href="#path-3"></use>
                <use fill="#000000" xlink:href="#path-3"></use>
            </g>
        </g>
        <g id="Group" transform="translate(95.000000, 396.000000)">
            <rect id="Rectangle" stroke="#000000" stroke-width="6" fill="#DC0785" x="0" y="0" width="322" height="100" rx="50"></rect>
            <path d="M127.88151,77 L116.47526,77 L93.5455729,38.640625 L93.3111979,38.6796875 L93.3111979,77 L81.9049479,77 L81.9049479,20.125 L93.3111979,20.125 L116.240885,58.4453125 L116.47526,58.40625 L116.47526,20.125 L127.88151,20.125 L127.88151,77 Z M155.811198,77.8203125 C149.509083,77.8203125 144.587257,75.8867381 141.045573,72.0195312 C137.503889,68.1523244 135.733073,63.1719055 135.733073,57.078125 L135.733073,55.515625 C135.733073,49.1874684 137.451806,44.0052285 140.889323,39.96875 C144.32684,35.9322715 149.053355,33.9270832 155.06901,33.952629 C160.746122,33.952629 165.101547,35.6913889 168.135417,39.1679688 C171.169286,42.6445486 172.686198,47.3254914 172.686198,53.2109375 L172.686198,59.109375 L147.490885,59.109375 L147.373698,59.34375 C147.55599,62.2343895 148.434888,64.578116 150.010417,66.375 C151.585945,68.171884 153.923162,69.0703125 157.022135,69.0703125 C159.574232,69.0703125 161.742179,68.8098984 163.526042,68.2890625 C165.309905,67.7682266 167.152334,66.9739637 169.053385,65.90625 L172.139323,72.9375 C170.446606,74.3177152 168.154962,75.4765578 165.264323,76.4140625 C162.373683,77.3515672 159.222673,77.8203125 155.811198,77.8203125 Z M155.06901,42.7421875 C152.777332,42.7421875 151.013027,43.52994 149.776042,45.1054688 C148.539056,46.6809975 147.790366,48.7708203 147.529948,51.375 L147.608073,51.5703125 L161.514323,51.5703125 L161.514323,50.7109375 C161.514323,48.2369668 161.006515,46.2903717 159.990885,44.8710938 C158.975255,43.4518158 157.334647,42.7421875 155.06901,42.7421875 Z M195.22526,48.171875 L195.459635,48.171875 L201.94401,34.734375 L214.834635,34.734375 L202.10026,55.6328125 L215.264323,77 L202.41276,77 L195.498698,62.9765625 L188.584635,77 L175.69401,77 L188.858073,55.6328125 L176.084635,34.734375 L188.897135,34.734375 L195.22526,48.171875 Z M235.52474,24.3828125 L235.52474,34.734375 L242.673177,34.734375 L242.673177,42.7421875 L235.52474,42.7421875 L235.52474,64.265625 C235.52474,65.9062582 235.869788,67.0781215 236.559896,67.78125 C237.250003,68.4843785 238.154942,68.8359375 239.27474,68.8359375 C239.873701,68.8359375 240.394529,68.8033857 240.83724,68.7382812 C241.27995,68.6731768 241.787758,68.5625008 242.360677,68.40625 L243.298177,76.6484375 C242.152338,77.0390645 241.039068,77.3320303 239.958333,77.5273438 C238.877599,77.7226572 237.699225,77.8203125 236.423177,77.8203125 C232.490866,77.8203125 229.463552,76.7395941 227.341146,74.578125 C225.218739,72.4166559 224.157552,68.9922109 224.157552,64.3046875 L224.157552,42.7421875 L217.985677,42.7421875 L217.985677,34.734375 L224.157552,34.734375 L224.157552,24.3828125 L235.52474,24.3828125 Z" id="Next" fill="#FFE800" fill-rule="nonzero"></path>
        </g>
    </g>
</svg>